# xmcd CD database file
#
# Track frame offsets:
#	150
#	13168
#	36226
#	59668
#	78960
#	100015
#	122677
#	146463
#	174448
#
# Disc length: 2714 seconds
#
# Revision: 0
# Processed by: cddbd v1.5.1PL0 Copyright (c) Steve Scherf et al.
# Submitted via: CDex 1.51
#
DISCID=710a9809
DTITLE=M-Groove! - AIR arrande album 〜桎となった純白の羽根が 黒翼に抱かれ空を舞う〜
DYEAR=1900
DGENRE=J ポップ
TTITLE0=野道に、足跡ふたり。
TTITLE1=地に縛られた鳥の詩
TTITLE2=水たまりに透ける肌
TTITLE3=虹色の桟
TTITLE4=てんとう「にょめれっち」虫っ!
TTITLE5=桎に繋がれた理
TTITLE6=黒翼の神薙は、白翼の絵空事。
TTITLE7=夏影に月童の夢を見る
TTITLE8=青空の回想録 -Farewell song-
EXTD=
EXTT0=
EXTT1=
EXTT2=
EXTT3=
EXTT4=
EXTT5=
EXTT6=
EXTT7=
EXTT8=
PLAYORDER=
